<svg width="1014" height="104" viewBox="0 0 1014 104" fill="none" xmlns="http://www.w3.org/2000/svg">
<path fill-rule="evenodd" clip-rule="evenodd" d="M1014 0L971.333 13.4815C928.667 26.963 843.333 53.9259 758 55.8519C672.667 57.7778 587.333 34.6667 502 23.1111C416.667 11.5556 331.333 11.5556 246 15.4074C160.667 19.2593 75.3333 26.963 32.6666 30.8148L-10 34.6667V104H32.6666C75.3333 104 160.667 104 246 104C331.333 104 416.667 104 502 104C587.333 104 672.667 104 758 104C843.333 104 928.667 104 971.333 104H1014V0Z" fill="#3F3D56"/>
</svg>
